<svg width="1544" height="500" viewBox="0 0 1544 500" fill="none" xmlns="http://www.w3.org/2000/svg">
  <!-- Dark background -->
  <rect width="1544" height="500" fill="#1A1A1A"/>

  <!-- WordPress W Mark (white, ~180px) -->
  <g transform="translate(482, 160) scale(2.8)">
    <path d="M4.548 31.999c0 10.9 6.3 20.3 15.5 24.706L6.925 20.827C5.402 24.2 4.5 28 4.5 31.999z M50.531 30.614c0-3.394-1.219-5.742-2.264-7.57c-1.391-2.263-2.695-4.177-2.695-6.439c0-2.523 1.912-4.872 4.609-4.872 c0.121 0 0.2 0 0.4 0.022C45.653 7.3 39.1 4.5 32 4.548c-9.591 0-18.027 4.921-22.936 12.4 c0.645 0 1.3 0 1.8 0.033c2.871 0 7.316-0.349 7.316-0.349c1.479-0.086 1.7 2.1 0.2 2.3 c0 0-1.487 0.174-3.142 0.261l9.997 29.735l6.008-18.017l-4.276-11.718c-1.479-0.087-2.879-0.261-2.879-0.261 c-1.48-0.087-1.306-2.349 0.174-2.262c0 0 4.5 0.3 7.2 0.349c2.87 0 7.317-0.349 7.317-0.349 c1.479-0.086 1.7 2.1 0.2 2.262c0 0-1.489 0.174-3.142 0.261l9.92 29.508l2.739-9.148 C49.628 35.7 50.5 33 50.5 30.614z M32.481 34.4l-8.237 23.934c2.46 0.7 5.1 1.1 7.8 1.1 c3.197 0 6.262-0.552 9.116-1.556c-0.072-0.118-0.141-0.243-0.196-0.379L32.481 34.4z M56.088 18.8 c0.119 0.9 0.2 1.8 0.2 2.823c0 2.785-0.521 5.916-2.088 9.832l-8.385 24.242c8.161-4.758 13.65-13.6 13.65-23.728 C59.451 27.2 58.2 22.7 56.1 18.83z M32 0c-17.645 0-32 14.355-32 32C0 49.6 14.4 64 32 64s32-14.355 32-32.001 C64 14.4 49.6 0 32 0z M32 62.533c-16.835 0-30.533-13.698-30.533-30.534C1.467 15.2 15.2 1.5 32 1.5 s30.534 13.7 30.5 30.532C62.533 48.8 48.8 62.5 32 62.533z" fill="white"/>
  </g>

  <!-- Plus sign -->
  <text x="772" y="270" font-family="system-ui, -apple-system, 'Segoe UI', sans-serif" font-size="80" font-weight="300" fill="#666666" text-anchor="middle">+</text>

  <!-- Grok icon (~180px) -->
  <g transform="translate(880, 160) scale(0.18)">
    <path d="M395.479 633.828L735.91 381.105C752.599 368.715 776.454 373.548 784.406 392.792C826.26 494.285 807.561 616.253 724.288 699.996C641.016 783.739 525.151 802.104 419.247 760.277L303.556 814.143C469.49 928.202 670.987 899.995 796.901 773.282C896.776 672.843 927.708 535.937 898.785 412.476L899.047 412.739C857.105 231.37 909.358 158.874 1016.4 10.6326C1018.93 7.11771 1021.47 3.60279 1024 0L883.144 141.651V141.212L395.392 633.916" fill="white"/>
    <path d="M325.226 695.251C206.128 580.84 226.662 403.776 328.285 301.668C403.431 226.097 526.549 195.254 634.026 240.596L749.454 186.994C728.657 171.88 702.007 155.623 671.424 144.2C533.19 86.9942 367.693 115.465 255.323 228.382C147.234 337.081 113.244 504.215 171.613 646.833C215.216 753.423 143.739 828.818 71.7385 904.916C46.2237 931.893 20.6216 958.87 0 987.429L325.139 695.339" fill="white"/>
  </g>
</svg>
