<svg width="128" height="128" viewBox="0 0 128 128" fill="none" xmlns="http://www.w3.org/2000/svg">
<rect width="128" height="128" fill="#1E1E1E"/>
<path d="M63.3813 24.1033C41.6317 24.1033 24 41.7349 24 63.4846C24 85.2342 41.6317 102.866 63.3813 102.866C85.1309 102.866 102.763 85.2342 102.763 63.4846C102.763 41.7349 85.1309 24.1033 63.3813 24.1033ZM63.3813 26.4662C68.3798 26.4662 73.2274 27.4445 77.7898 29.3741C79.9829 30.3017 82.0984 31.4499 84.0773 32.7869C86.0378 34.1114 87.8815 35.6325 89.5572 37.3087C91.2329 38.9844 92.7545 40.8281 94.079 42.7885C95.4159 44.7675 96.5642 46.883 97.4918 49.076C99.4213 53.6384 100.4 58.486 100.4 63.4846C100.4 68.4831 99.4213 73.3307 97.4918 77.8931C96.5642 80.0861 95.4159 82.2012 94.079 84.1801C92.7545 86.141 91.2329 87.9847 89.5572 89.6605C87.8815 91.3362 86.0378 92.8577 84.0773 94.1822C82.0984 95.5192 79.9829 96.6674 77.7898 97.595C73.2274 99.5246 68.3798 100.503 63.3813 100.503C58.3828 100.503 53.5352 99.5246 48.9728 97.595C46.7797 96.6674 44.6642 95.5192 42.6853 94.1822C40.7248 92.8577 38.8811 91.3362 37.2054 89.6605C35.5297 87.9847 34.0081 86.141 32.6836 84.1801C31.3466 82.2012 30.1984 80.0861 29.2708 77.8931C27.3413 73.3307 26.3629 68.4831 26.3629 63.4846C26.3629 58.486 27.3413 53.6384 29.2708 49.076C30.1984 46.883 31.3466 44.7675 32.6836 42.7885C34.0081 40.8281 35.5297 38.9844 37.2054 37.3087C38.8811 35.6325 40.7248 34.1114 42.6853 32.7869C44.6642 31.4499 46.7797 30.3017 48.9728 29.3741C53.5352 27.4445 58.3828 26.4662 63.3813 26.4662Z" fill="white"/>
<path d="M93.3017 48.0216C93.4454 49.0824 93.5262 50.2205 93.5262 51.4461C93.5262 54.8243 92.8918 58.6234 90.9863 63.3748L80.7878 92.7847C90.7154 87.0119 97.3912 76.285 97.3912 63.9986C97.3912 58.2085 95.9078 52.765 93.3017 48.0216ZM64.5863 66.9117L54.5662 95.9474C57.5588 96.8255 60.7223 97.3042 63.9998 97.3042C67.8883 97.3042 71.6186 96.6349 75.0891 95.4158C74.9999 95.2735 74.9173 95.1222 74.8496 94.9569L64.5863 66.9117ZM86.5419 62.3191C86.5419 58.2019 85.059 55.3521 83.7893 53.1345C82.0965 50.39 80.5089 48.068 80.5089 45.3235C80.5089 42.2624 82.8365 39.4126 86.1164 39.4126C86.2648 39.4126 86.4047 39.4304 86.5489 39.4397C80.6079 34.0107 72.6929 30.6958 63.9998 30.6958C52.3339 30.6958 42.0711 36.6657 36.1005 45.7061C36.8842 45.7309 37.6233 45.7469 38.2493 45.7469C41.7414 45.7469 47.149 45.3235 47.149 45.3235C48.9483 45.2181 49.1606 47.8558 47.3626 48.068C47.3626 48.068 45.5529 48.2792 43.5413 48.3841L55.7002 84.459L63.0086 62.6006L57.8067 48.3841C56.0078 48.2792 54.3047 48.068 54.3047 48.068C52.5044 47.9617 52.7152 45.2181 54.5165 45.3235C54.5165 45.3235 60.0296 45.7469 63.3105 45.7469C66.8022 45.7469 72.2107 45.3235 72.2107 45.3235C74.011 45.2181 74.2228 47.8558 72.4239 48.068C72.4239 48.068 70.6123 48.2792 68.6021 48.3841L80.6695 84.1841L84.1142 73.2975C85.6445 68.5396 86.5419 65.169 86.5419 62.3191ZM30.6085 63.9986C30.6085 77.1805 38.2887 88.5734 49.4282 93.971L33.4996 50.4453C31.6471 54.5868 30.6085 59.1705 30.6085 63.9986Z" fill="white"/>
<rect x="69.5" y="69.5" width="43" height="43" rx="21.5" fill="#000000"/>
<rect x="69.5" y="69.5" width="43" height="43" rx="21.5" stroke="#1E1E1E" stroke-width="3"/>
<g clip-path="url(#clip0_grok)">
<g transform="translate(74.5 74.5) scale(0.032227)">
<path d="M395.479 633.828L735.91 381.105C752.599 368.715 776.454 373.548 784.406 392.792C826.26 494.285 807.561 616.253 724.288 699.996C641.016 783.739 525.151 802.104 419.247 760.277L303.556 814.143C469.49 928.202 670.987 899.995 796.901 773.282C896.776 672.843 927.708 535.937 898.785 412.476L899.047 412.739C857.105 231.37 909.358 158.874 1016.4 10.6326C1018.93 7.11771 1021.47 3.60279 1024 0L883.144 141.651V141.212L395.392 633.916" fill="white"/>
<path d="M325.226 695.251C206.128 580.84 226.662 403.776 328.285 301.668C403.431 226.097 526.549 195.254 634.026 240.596L749.454 186.994C728.657 171.88 702.007 155.623 671.424 144.2C533.19 86.9942 367.693 115.465 255.323 228.382C147.234 337.081 113.244 504.215 171.613 646.833C215.216 753.423 143.739 828.818 71.7385 904.916C46.2237 931.893 20.6216 958.87 0 987.429L325.139 695.339" fill="white"/>
</g>
</g>
<defs>
<clipPath id="clip0_grok">
<rect width="43" height="43" rx="21.5" transform="translate(69.5 69.5)"/>
</clipPath>
</defs>
</svg>
